HIERARCHY
ROOT ui
{
	 OFFSET 0 0 0
	 CHANNELS 3 XPosition YPosition Z Position
	 EndSite
	 {
	 OFFSET 0 -1 0
	 }
}
ROOT li
{
	 OFFSET 0 0 0
	 CHANNELS 3 XPosition YPosition Z Position
	 EndSite
	 {
	 OFFSET 0 -1 0
	 }
}
ROOT ul
{
	 OFFSET 0 0 0
	 CHANNELS 3 XPosition YPosition Z Position
	 EndSite
	 {
	 OFFSET 0 -1 0
	 }
}
ROOT ll
{
	 OFFSET 0 0 0
	 CHANNELS 3 XPosition YPosition Z Position
	 EndSite
	 {
	 OFFSET 0 -1 0
	 }
}
ROOT tt
{
	 OFFSET 0 0 0
	 CHANNELS 3 XPosition YPosition Z Position
	 EndSite
	 {
	 OFFSET 0 -1 0
	 }
}
ROOT tb
{
	 OFFSET 0 0 0
	 CHANNELS 3 XPosition YPosition Z Position
	 EndSite
	 {
	 OFFSET 0 -1 0
	 }
}
ROOT td
{
	 OFFSET 0 0 0
	 CHANNELS 3 XPosition YPosition Z Position
	 EndSite
	 {
	 OFFSET 0 -1 0
	 }
}
ROOT v
{
	 OFFSET 0 0 0
	 CHANNELS 3 XPosition YPosition Z Position
	 EndSite
	 {
	 OFFSET 0 -1 0
	 }
}
ROOT bn
{
	 OFFSET 0 0 0
	 CHANNELS 3 XPosition YPosition Z Position
	 EndSite
	 {
	 OFFSET 0 -1 0
	 }
}
MOTION
Frames: 32
Frame Time: 0.002
-0.027524930953979492	-0.002882538080215454	0		0.49776397705078124	-2.377484130859375	0		-1.0020242309570313	-0.04573211669921875	0		-0.48282901000976564	-2.52527587890625	0		1.8357049560546874	-1.04635107421875	0		3.2123515625	0.06436670684814454	0		4.584673828125	0.376086181640625	0		5.99853466796875	0.45136007690429686	0		-0.14698390197753905	5.9046826171875	0		
-9.166560173034668E-4	-0.002579134941101074	0		0.5062924194335937	-2.3849921875	0		-1.0634632568359375	-0.04951275253295898	0		-0.54221337890625	-2.5240771484375	0		1.7763502197265626	-1.0421500244140625	0		3.225762451171875	0.045810009002685545	0		4.5701171875	0.3608224792480469	0		5.98506103515625	0.4440870056152344	0		-0.1463909149169922	5.9042568359375	0		
0.01066929817199707	-1.4188900589942932E-4	0		0.48193572998046874	-2.377179443359375	0		-1.0448359375	-0.04315012359619141	0		-0.52464501953125	-2.523702880859375	0		1.812842529296875	-1.0489700927734376	0		3.251170654296875	0.031106882095336914	0		4.59760791015625	0.3540999755859375	0		6.01061474609375	0.44338699340820314	0		-0.1136373062133789	5.92347412109375	0		
0.0022019240856170656	0.0014814709424972533	0		0.5005230712890625	-2.3708369140625	0		-1.0453140869140625	-0.042611839294433594	0		-0.5350350952148437	-2.51506005859375	0		1.81626171875	-1.058468017578125	0		3.237765869140625	0.03878756332397461	0		4.58814013671875	0.3557416381835937	0		6.0062294921875	0.45297857666015623	0		-0.14534274291992189	5.903337890625	0		
0.0016790000200271606	0.0019994720220565796	0		0.4880679626464844	-2.364193115234375	0		-1.0458369140625	-0.04209592056274414	0		-0.5395944213867188	-2.518501220703125	0		1.812699462890625	-1.0619150390625	0		3.248867431640625	0.0031889948844909667	0		4.59739697265625	0.335165771484375	0		6.00062255859375	0.4455610046386719	0		-0.14686692810058594	5.9048662109375	0		
-0.024971773147583008	-0.005233467102050781	0		0.49742041015625	-2.3717998046875	0		-1.04640576171875	-0.041602237701416016	0		-0.5530946655273438	-2.51187158203125	0		1.8490787353515625	-1.066800048828125	0		3.25411083984375	-0.014369443893432617	0		4.5927548828125	0.3287137756347656	0		6.000052734375	0.446070068359375	0		-0.11338807678222657	5.91100732421875	0		
-0.0035359089374542236	1.1257999576628208E-5	0		0.50572705078125	-2.37941796875	0		-1.0279488525390625	-0.034328720092773435	0		-0.54076708984375	-2.51753369140625	0		1.814416015625	-1.0709676513671875	0		3.263235107421875	-0.03899074172973633	0		4.59706591796875	0.3221465759277344	0		5.9783544921875	0.4387767333984375	0		-0.14708758544921874	5.9048251953125	0		
-0.031192745208740234	7.44717001914978E-4	0		0.4811481628417969	-2.37171484375	0		-1.0076393432617188	-0.03709683227539062	0		-0.5393991088867187	-2.515103271484375	0		1.816801513671875	-1.06654248046875	0		3.262576904296875	-0.038531013488769535	0		4.60032373046875	0.31456805419921874	0		5.99486083984375	0.455064697265625	0		-0.14775892639160157	5.90527734375	0		
-8.581770062446594E-4	0.0038536059856414794	0		0.5244658813476563	-2.370740234375	0		-0.9952101440429687	-0.02480309295654297	0		-0.5421098022460937	-2.51665185546875	0		1.81017138671875	-1.060045166015625	0		3.2726318359375	-0.06220608520507812	0		4.58642041015625	0.2951451110839844	0		5.99008203125	0.44755020141601565	0		-0.14747601318359374	5.9046982421875	0		
-0.03260859680175781	0.001587327003479004	0		0.48785479736328125	-2.359954345703125	0		-0.9918999633789063	-0.02143536949157715	0		-0.5577842407226562	-2.512085693359375	0		1.8463983154296875	-1.0650157470703125	0		3.29075390625	-0.07698654174804688	0		4.58654296875	0.28055401611328123	0		5.9893603515625	0.447970947265625	0		-0.1482064208984375	5.905109375	0		
0.04664401626586914	1.4569999277591706E-4	0		0.5120715942382813	-2.364822998046875	0		-0.971654541015625	-0.023264436721801757	0		-0.5605449829101562	-2.514675048828125	0		1.8056898193359374	-1.062207275390625	0		3.28279296875	-0.09851821136474609	0		4.59359130859375	0.2598677978515625	0		5.9796279296875	0.44846209716796875	0		-0.14993563842773439	5.906509765625	0		
-0.029122661590576172	-0.0027048139572143554	0		0.4673362426757813	-2.364995849609375	0		-1.0304013671875	-0.024292640686035157	0		-0.55135595703125	-2.522409912109375	0		1.850865478515625	-1.0713145751953126	0		3.28699072265625	-0.10519808197021484	0		4.58086279296875	0.2603653564453125	0		5.9787216796875	0.43183685302734376	0		-0.14969015502929686	5.90486865234375	0		
0.05319238662719727	-2.2063800692558288E-4	0		0.49865499877929687	-2.36198095703125	0		-1.0510390625	-0.01673790740966797	0		-0.547014892578125	-2.51711474609375	0		1.8013336181640625	-1.0534576416015624	0		3.314986328125	-0.13314935302734374	0		4.58100537109375	0.2467050323486328	0		5.98717578125	0.44809222412109373	0		-0.11819786834716797	5.92488232421875	0		
-0.02647576904296875	0.0019263770580291747	0		0.4910766296386719	-2.351583251953125	0		-1.0076827392578125	-0.012870248794555663	0		-0.5266883544921875	-2.5160078125	0		1.854689453125	-1.04969384765625	0		3.305314453125	-0.13173019409179687	0		4.58809326171875	0.22494869995117187	0		5.98240966796875	0.44045999145507814	0		-0.15009764099121095	5.90453125	0		
0.048832878112792966	-0.0025605270862579348	0		0.484357666015625	-2.35821728515625	0		-1.05427392578125	-0.007088491916656494	0		-0.5693742065429688	-2.519267333984375	0		1.808129150390625	-1.040913330078125	0		3.27930615234375	-0.16616619873046876	0		4.573396484375	0.22039619445800782	0		5.98567041015625	0.43172000122070314	0		-0.15074118041992188	5.90483447265625	0		
-0.032682586669921875	0.006562231063842773	0		0.4837526550292969	-2.35793701171875	0		-1.008931396484375	-0.01228502082824707	0		-0.5489700927734374	-2.51820458984375	0		1.8495438232421875	-1.039071044921875	0		3.291618896484375	-0.17402293395996093	0		4.58057470703125	0.1995911102294922	0		5.97607861328125	0.4330893859863281	0		-0.15133934020996093	5.905115234375	0		
0.043630989074707034	-0.005980246067047119	0		0.48521273803710935	-2.35570068359375	0		-1.08040185546875	-0.0032877459526062013	0		-0.6056839599609375	-2.532362548828125	0		1.7781343994140626	-1.024077880859375	0		3.29786328125	-0.19284135437011718	0		4.57679931640625	0.1788750762939453	0		5.9845107421875	0.43224554443359375	0		-0.15188882446289062	5.90537353515625	0		
-0.032833908081054686	-9.555780291557312E-4	0		0.4867288208007812	-2.35248828125	0		-1.041831298828125	0.004542353153228759	0		-0.5781279907226563	-2.5254189453125	0		1.7779132080078126	-0.9958485107421875	0		3.297352294921875	-0.19261328125	0		4.57221630859375	0.1721427459716797	0		5.9840009765625	0.43246859741210936	0		-0.1523883514404297	5.90560791015625	0		
0.041739673614501954	0.0024741780757904053	0		0.48827996826171877	-2.350300048828125	0		-1.0541905517578125	0.014879529953002929	0		-0.5905348510742188	-2.519082763671875	0		1.77947802734375	-0.9926632690429688	0		3.286607421875	-0.21930520629882813	0		4.5675341796875	0.15138504028320313	0		5.97553857421875	0.432748046875	0		-0.15185920715332032	5.90380859375	0		
-0.033716667175292966	-5.5868399143219E-4	0		0.51280126953125	-2.355375	0		-1.0146114501953125	0.014652446746826172	0		-0.548119140625	-2.534341552734375	0		1.7822332763671875	-0.9755140380859375	0		3.3251650390625	-0.2215338439941406	0		4.56797021484375	0.13754902648925782	0		5.98312060546875	0.43283447265625	0		-0.15324067687988283	5.90600537109375	0		
-0.0070934357643127445	-6.775569915771485E-4	0		0.4854513854980469	-2.35193359375	0		-1.06283837890625	0.02931675720214844	0		-0.6004369506835937	-2.527636474609375	0		1.7848963623046874	-0.9713888549804688	0		3.281677001953125	-0.23193360900878907	0		4.55453369140625	0.13183279418945312	0		5.9747470703125	0.43306149291992185	0		-0.1535977783203125	5.90616796875	0		
-0.01641434860229492	5.538870096206665E-4	0		0.48511199951171874	-2.35179736328125	0		-1.0231722412109374	0.029041296005249025	0		-0.58986083984375	-2.535611083984375	0		1.7957066650390625	-0.9573721923828125	0		3.291197998046875	-0.2459098358154297	0		4.54185888671875	0.0990826416015625	0		5.96933349609375	0.4252325134277344	0		-0.15293145751953124	5.9042958984375	0		
-0.026719364166259765	-0.0012286289930343627	0		0.4698101806640625	-2.352529296875	0		-1.0493304443359375	0.041427921295166016	0		-0.5751961059570313	-2.539652099609375	0		1.772670166015625	-0.9330264282226562	0		3.303724365234375	-0.263941650390625	0		4.53549169921875	0.09124427795410156	0		5.9831328125	0.43318035888671874	0		-0.12099077606201172	5.9240751953125	0		
0.048087646484375	0.002078010082244873	0		0.5176324462890625	-2.346943115234375	0		-0.9466082153320312	0.036446258544921874	0		-0.590391845703125	-2.53540576171875	0		1.740719970703125	-0.905611328125	0		3.28553564453125	-0.25967578125	0		4.53320947265625	0.08634017181396485	0		5.97390380859375	0.43334457397460935	0		-0.1534102783203125	5.90449853515625	0		
-0.013056778907775879	0.004777073860168457	0		0.44953399658203125	-2.339172607421875	0		-1.075748779296875	0.0398569450378418	0		-0.6035042114257813	-2.52920556640625	0		1.7496629638671874	-0.8946471557617187	0		3.252107421875	-0.284276123046875	0		4.525759765625	0.05946543884277344	0		5.97373681640625	0.4333914184570313	0		-0.15454156494140625	5.90657275390625	0		
0.04570327377319336	-0.00879948616027832	0		0.5132982788085938	-2.351802490234375	0		-0.9628143920898438	0.042719104766845706	0		-0.5987684936523437	-2.544217529296875	0		1.7317586669921874	-0.8754270629882812	0		3.277858154296875	-0.298516845703125	0		4.52243994140625	0.038524253845214844	0		5.9605537109375	0.42555010986328123	0		-0.1546277618408203	5.90661083984375	0		
-0.03927201080322266	-0.002901510953903198	0		0.4583055725097656	-2.34721826171875	0		-1.081829345703125	0.044974185943603515	0		-0.59475439453125	-2.53924609375	0		1.7349017333984376	-0.8584513549804688	0		3.2786064453125	-0.31952169799804686	0		4.5112626953125	0.02464132308959961	0		5.96543896484375	0.4174967346191406	0		-0.15366728210449218	5.90461279296875	0		
0.03983322143554688	0.0032600839138031005	0		0.49036712646484376	-2.344567138671875	0		-1.0727098388671874	0.05286791610717773	0		-0.5927020263671875	-2.537280029296875	0		1.700324462890625	-0.8211056518554688	0		3.26373681640625	-0.31038607788085937	0		4.50317431640625	0.012702699661254882	0		5.9695595703125	0.4254290466308594	0		-0.15459848022460937	5.906609375	0		
-0.02711188507080078	-0.001079967975616455	0		0.462489501953125	-2.342315185546875	0		-1.0545030517578124	0.06264189147949219	0		-0.592602294921875	-2.537318359375	0		1.7036038818359376	-0.8041795654296875	0		3.268672607421875	-0.32648138427734374	0		4.50105908203125	-0.008321099281311035	0		5.9776630859375	0.42529763793945313	0		-0.15448648071289062	5.9065703125	0		
0.045062255859375	-8.948959708213806E-4	0		0.479685546875	-2.339556884765625	0		-1.0593768310546876	0.05863147354125976	0		-0.6053734741210938	-2.531246337890625	0		1.70985400390625	-0.7963077392578125	0		3.283839111328125	-0.3267043151855469	0		4.4811025390625	-0.020179229736328123	0		5.9778310546875	0.42522894287109375	0		-0.12026358795166016	5.91115185546875	0		
-0.04269482040405274	9.358440041542053E-4	0		0.47991299438476565	-2.339644287109375	0		-1.0591490478515626	0.05854423522949219	0		-0.6399459228515625	-2.511969482421875	0		1.70239501953125	-0.7663134765625	0		3.23995458984375	-0.3373323669433594	0		4.49011083984375	-0.041359844207763674	0		5.9690595703125	0.42523483276367186	0		-0.1550646209716797	5.9084296875	0		
0.05051986312866211	-0.006144239902496338	0		0.48912332153320315	-2.34684765625	0		-1.0988541259765625	0.05985070419311524	0		-0.6309232788085938	-2.537172607421875	0		1.711938232421875	-0.7415177612304688	0		3.2451533203125	-0.34549212646484373	0		4.47518505859375	-0.061309524536132816	0		5.9701640625	0.4081189880371094	0		-0.15479647827148438	5.90731982421875	0		
